<svg width="400" height="377" viewBox="0 0 400 377" fill="none" xmlns="http://www.w3.org/2000/svg">
<g clip-path="url(#clip0_2010_62)">
<path d="M290.402 213.915V318.05L307.806 346.438L309.131 348.597H377.803L379.19 213.915H290.402Z" fill="#C4C495"/>
<path opacity="0.1" d="M290.402 213.915V318.05L307.806 346.438L308.874 213.915H290.402Z" fill="black"/>
<path d="M124.617 211.138V315.274L107.213 343.661L105.889 345.82H37.2166L35.8291 211.138H124.617Z" fill="#C4C495"/>
<path opacity="0.1" d="M124.617 211.138V315.273L107.213 343.661L106.145 211.138H124.617Z" fill="black"/>
<path d="M400 209.056V215.303H26.8115V206.278L61.4943 188.228H369.479L400 209.056Z" fill="#C4C495"/>
<path opacity="0.1" d="M400 209.056V215.303H26.8115V206.278L400 209.056Z" fill="black"/>
<path d="M80.2235 240.296H63.5753L56.6388 235.436H87.8536L80.2235 240.296Z" fill="#2A2545"/>
<path d="M80.2235 260.429H63.5753L56.6388 255.569H87.8536L80.2235 260.429Z" fill="#2A2545"/>
<path d="M80.2235 288.893H63.5753L56.6388 284.033H87.8536L80.2235 288.893Z" fill="#2A2545"/>
<path d="M80.2235 317.356H63.5753L56.6388 312.497H87.8536L80.2235 317.356Z" fill="#2A2545"/>
<path d="M334.796 243.073H351.444L358.381 238.213H327.166L334.796 243.073Z" fill="#2A2545"/>
<path d="M334.796 263.206H351.444L358.381 258.346H327.166L334.796 263.206Z" fill="#2A2545"/>
<path d="M334.796 291.67H351.444L358.381 286.81H327.166L334.796 291.67Z" fill="#2A2545"/>
<path d="M334.796 320.133H351.444L358.381 315.273H327.166L334.796 320.133Z" fill="#2A2545"/>
<path d="M346.133 67.8058H205.981C205.285 67.8057 204.596 67.9428 203.953 68.2094C203.31 68.476 202.725 68.8667 202.233 69.3593C201.741 69.8519 201.351 70.4368 201.084 71.0804C200.818 71.7241 200.681 72.4139 200.681 73.1106V167.599C200.681 168.296 200.818 168.986 201.084 169.629C201.351 170.273 201.741 170.858 202.233 171.35C202.725 171.843 203.31 172.234 203.953 172.5C204.596 172.767 205.285 172.904 205.981 172.904H259.184L257.191 185.64C257.191 185.64 245.8 191.697 253.809 191.875C261.818 192.053 299.551 191.875 299.551 191.875C299.551 191.875 306.848 191.875 295.279 185.462L293.404 172.904H346.133C346.829 172.904 347.518 172.767 348.161 172.5C348.804 172.234 349.389 171.843 349.881 171.35C350.373 170.858 350.764 170.273 351.03 169.629C351.296 168.986 351.433 168.296 351.433 167.599V73.1106C351.433 72.4139 351.296 71.7241 351.03 71.0804C350.764 70.4368 350.373 69.8519 349.881 69.3593C349.389 68.8667 348.804 68.476 348.161 68.2094C347.518 67.9428 346.829 67.8057 346.133 67.8058Z" fill="#2A2545"/>
<path d="M346.361 73.417H205.753V152.151H346.361V73.417Z" fill="#F2F2F2"/>
<path d="M276.057 71.8138C276.549 71.8138 276.947 71.415 276.947 70.9231C276.947 70.4312 276.549 70.0324 276.057 70.0324C275.566 70.0324 275.167 70.4312 275.167 70.9231C275.167 71.415 275.566 71.8138 276.057 71.8138Z" fill="#F2F2F2"/>
<path d="M276.057 169.074C277.925 169.074 279.439 167.559 279.439 165.689C279.439 163.82 277.925 162.305 276.057 162.305C274.189 162.305 272.675 163.82 272.675 165.689C272.675 167.559 274.189 169.074 276.057 169.074Z" fill="#F2F2F2"/>
<path d="M270.788 201.494V203.276H175.032V201.85L175.164 201.494L177.524 195.081H268.83L270.788 201.494Z" fill="#2A2545"/>
<path d="M307.637 199.75C307.463 200.496 306.804 201.284 305.316 202.028C299.977 204.7 289.12 201.316 289.12 201.316C289.12 201.316 280.754 199.891 280.754 196.15C280.989 195.989 281.234 195.843 281.488 195.714C283.733 194.525 291.176 191.592 304.374 195.838C305.346 196.143 306.214 196.713 306.882 197.483C307.178 197.774 307.401 198.132 307.532 198.526C307.663 198.92 307.699 199.339 307.637 199.75Z" fill="#2A2545"/>
<path opacity="0.1" d="M307.637 199.75C301.102 202.256 295.276 202.443 289.298 198.288C287.037 196.615 284.299 195.713 281.488 195.714C283.733 194.525 291.176 191.592 304.374 195.838C305.346 196.143 306.214 196.713 306.882 197.483C307.178 197.774 307.401 198.132 307.532 198.526C307.663 198.92 307.699 199.339 307.637 199.75Z" fill="black"/>
<path d="M299.443 198.288C300.721 198.288 301.757 197.969 301.757 197.575C301.757 197.182 300.721 196.863 299.443 196.863C298.165 196.863 297.129 197.182 297.129 197.575C297.129 197.969 298.165 198.288 299.443 198.288Z" fill="#F2F2F2"/>
<path opacity="0.1" d="M270.788 201.494V203.276H175.032V201.85L175.164 201.494H270.788Z" fill="black"/>
<path d="M53.2413 8.36664e-05C52.2695 -0.0797727 51.2964 0.137794 50.4509 0.623954C49.6208 1.19294 49.0975 2.18975 48.5634 3.11734C46.5214 6.70622 43.7569 9.83155 40.445 12.2953C38.0328 14.064 34.9659 16.2693 35.3786 19.5302C35.5964 20.6071 35.9939 21.6396 36.5545 22.5843C38.7798 27.0802 44.8524 30.5546 44.2551 35.6849C46.4661 31.9804 43.5088 30.1487 45.7197 26.4443C46.7726 24.6801 48.6017 22.6887 50.1914 23.7966C50.7237 24.1676 51.0732 24.8329 51.6274 25.1584C52.9498 25.935 54.3567 24.4503 55.5273 23.3986C59.5638 19.7719 65.3042 20.722 70.3272 21.852C72.6986 22.3855 75.3033 23.0853 76.7051 25.3537C78.5483 28.3361 74.954 31.5571 74.0459 34.929C73.9718 35.2163 73.9682 35.5174 74.0357 35.8063C74.1031 36.0953 74.2395 36.3636 74.4331 36.5883C74.6267 36.8131 74.8719 36.9875 75.1475 37.0968C75.4232 37.206 75.7212 37.2468 76.0161 37.2156C77.5233 37.0668 79.3087 36.9449 79.3979 36.2829C81.2942 36.3505 83.6177 36.1356 84.4302 34.1594C84.6785 33.3775 84.8098 32.5631 84.8197 31.7427C85.1179 28.4231 86.5256 25.3947 87.4582 22.2352C88.3908 19.0758 88.7963 15.3731 87.2225 12.5719C86.6608 11.6399 85.9662 10.7949 85.1606 10.0638C76.2296 1.41375 64.4873 -0.0127563 53.2413 8.36664e-05Z" fill="#2A2545"/>
<path d="M46.1975 42.1647C46.1975 42.1647 48.1398 58.3643 41.0179 59.6603C33.896 60.9563 47.4924 82.9877 47.4924 82.9877L79.8646 86.8756L72.0952 60.9563C72.0952 60.9563 66.9157 59.0123 70.1529 46.0526C73.3901 33.093 46.1975 42.1647 46.1975 42.1647Z" fill="#FFB8B8"/>
<path d="M26.4504 320.474L29.0404 356.113H42.6363L38.7521 320.474H26.4504Z" fill="#FFB8B8"/>
<path d="M126.157 253.083L128.099 282.89L142.991 276.411L137.163 251.788L126.157 253.083Z" fill="#FFB8B8"/>
<path d="M16.7388 184.397C16.7388 184.397 17.3862 221.98 21.2709 234.292C25.1556 246.604 24.5081 247.252 23.8607 249.196C23.2132 251.139 22.5658 249.844 22.5658 253.083C22.5658 256.323 21.2709 307.514 22.5658 312.05C23.8607 316.586 18.6811 324.362 22.5658 325.01C26.4504 325.658 44.5789 325.01 45.2263 321.122C45.8738 317.234 40.0468 315.938 42.6365 313.346C45.2263 310.754 49.111 257.619 49.111 257.619L58.1752 220.684L75.0087 201.245H110.618L121.625 244.012C121.625 244.012 117.093 256.323 120.33 256.323C123.567 256.323 142.99 260.211 142.99 245.956C142.99 231.7 136.516 189.581 135.221 188.285C133.926 186.989 135.868 182.453 133.926 180.509C131.984 178.565 109.323 164.958 100.907 162.366C92.4897 159.774 80.6824 156.689 80.6824 156.689L16.7388 184.397Z" fill="#2A2545"/>
<path d="M142.99 271.227C142.99 271.227 133.279 267.987 128.747 277.707C124.214 287.427 126.157 290.019 126.157 290.019C126.157 290.019 141.048 295.202 143.638 292.61C144.765 291.483 148.342 291.091 152.025 291.008C157.634 290.882 159.127 282.94 153.829 281.091C153.671 281.035 153.511 280.987 153.349 280.947C148.17 279.651 142.99 271.227 142.99 271.227Z" fill="#2A2545"/>
<path d="M60.765 52.8565C71.4922 52.8565 80.1883 44.1531 80.1883 33.4169C80.1883 22.6808 71.4922 13.9774 60.765 13.9774C50.0377 13.9774 41.3416 22.6808 41.3416 33.4169C41.3416 44.1531 50.0377 52.8565 60.765 52.8565Z" fill="#FFB8B8"/>
<path d="M35.5146 67.7601C35.5146 67.7601 67.2394 74.2399 75.0087 63.8722C82.7781 53.5044 86.0153 93.0314 86.0153 93.0314L89.9 134.502L84.073 157.182C84.073 157.182 53.6431 181.805 43.9314 183.749C34.2198 185.693 19.3285 186.989 19.3285 186.989C19.3285 186.989 23.8607 115.063 23.8607 113.767C23.8607 112.471 35.5146 67.7601 35.5146 67.7601Z" fill="#C4C495"/>
<path d="M45.1629 55.6074C45.1629 55.6074 38.1044 51.5605 36.1621 55.4484C34.2197 59.3363 16.0913 69.056 14.149 69.056C12.2066 69.056 18.0336 122.839 15.4439 129.319C12.8541 135.798 0.552653 183.101 7.67454 186.989C14.7964 190.877 9.61687 183.101 16.7388 192.821C23.8606 202.541 58.8226 202.541 60.765 198.653C62.7073 194.765 45.2263 165.606 48.4635 138.39C51.7007 111.175 56.8803 73.5919 52.3482 68.4081C47.8161 63.2242 45.1629 55.6074 45.1629 55.6074Z" fill="#2A2545"/>
<path d="M68.5343 59.9843L69.4361 56.8782C69.4361 56.8782 96.3744 65.8161 97.6693 71.648C98.9642 77.4799 98.3168 118.303 93.7846 121.543C89.2525 124.783 82.7781 129.967 87.3102 137.742C91.8423 145.518 97.0218 153.942 100.907 154.59C104.791 155.238 111.913 159.774 109.971 164.31C108.028 168.846 84.7204 160.422 84.7204 160.422C84.7204 160.422 69.1818 148.758 69.8292 130.614C70.4767 112.471 68.5343 59.9843 68.5343 59.9843Z" fill="#2A2545"/>
<path d="M91.1948 136.446L75.6562 165.606C75.6562 165.606 52.9956 188.933 65.9445 191.525C78.8934 194.117 86.0153 170.142 86.0153 170.142L102.849 146.166L91.1948 136.446Z" fill="#FFB8B8"/>
<path d="M54.1875 5.08639C53.4046 5.02833 52.6204 5.18056 51.916 5.52734C51.2791 5.9929 50.7541 6.595 50.3795 7.28964C48.6526 9.88946 46.4015 12.0991 43.7708 13.7766C41.8071 15.0267 39.3106 16.5853 39.6466 18.8902C39.8289 19.6629 40.1535 20.3949 40.6037 21.0487C42.4215 24.2586 43.1452 27.9736 42.6652 31.6318L48.0647 23.777C48.9218 22.5301 50.4107 21.1226 51.7048 21.9056C52.1381 22.1678 52.4226 22.6381 52.8738 22.8681C53.9503 23.4171 55.0955 22.3676 56.0484 21.6243C59.3343 19.061 64.0072 19.7325 68.0962 20.5312C70.0266 20.9082 72.1469 21.4029 73.2881 23.0062C75.1845 25.6705 73.2043 29.5202 74.3111 32.5981C74.6209 32.381 74.884 32.1039 75.0848 31.7831C75.2856 31.4624 75.42 31.1046 75.4801 30.7309C77.0238 30.7786 78.9152 30.6267 79.5766 29.2299C79.7778 28.6825 79.885 28.105 79.8937 27.5218C80.1364 25.1756 81.2824 23.0351 82.0415 20.802C82.8007 18.5689 83.1308 15.9519 81.8496 13.972C81.381 13.3012 80.8153 12.7038 80.1712 12.1994C72.901 6.08555 63.3423 5.07732 54.1875 5.08639Z" fill="#2A2545"/>
<path d="M91.1948 69.0561L97.2272 70.6586C97.2272 70.6586 111.266 106.639 108.028 131.263C104.791 155.886 102.849 150.702 102.849 150.702C102.849 150.702 97.6693 139.038 86.0153 141.63L91.1948 69.0561Z" fill="#2A2545"/>
<path d="M27.3474 351.403C25.7861 353.526 26.0992 356.562 24.7162 358.805C23.5174 360.75 21.2581 361.77 19.7586 363.494C19.2801 364.066 18.8536 364.68 18.484 365.329C17.0931 367.661 15.9625 370.649 17.3324 372.994C18.4344 374.879 20.7508 375.616 22.8752 376.119C25.5603 376.754 28.3502 377.262 31.0663 376.777C33.7824 376.291 36.437 374.627 37.4054 372.041C37.5957 371.391 37.822 370.752 38.0832 370.127C39.5553 367.226 44.173 367.195 45.6796 364.312C46.734 362.295 45.7648 359.856 44.796 357.796L41.8369 351.504C40.8549 349.416 36.8742 350.617 34.7989 350.117C32.0923 349.464 29.2945 348.745 27.3474 351.403Z" fill="#2A2545"/>
<path d="M5.7322 149.406L32.9249 191.525C32.9249 191.525 49.7584 212.908 54.938 203.189C60.1175 193.469 36.8095 177.269 36.8095 177.269L19.3285 144.87L5.7322 149.406Z" fill="#FFB8B8"/>
<path d="M19.3285 70.352L14.149 69.0561C14.149 69.0561 3.78986 72.296 1.20009 85.9036C-1.38968 99.5113 0.552643 153.942 3.78986 154.59C7.02708 155.238 19.7785 145.112 21.8196 147.259C23.8606 149.406 17.3862 138.39 19.3285 132.558C21.2708 126.727 19.3285 70.352 19.3285 70.352Z" fill="#2A2545"/>
<path d="M262.749 99.276H246.015V103.308H262.749V99.276Z" fill="#C4C495"/>
<path d="M320.698 99.276H314.81V103.308H320.698V99.276Z" fill="#C4C495"/>
<path d="M332.473 99.276H326.585V103.308H332.473V99.276Z" fill="#C4C495"/>
<path d="M308.612 99.276H268.637V103.308H308.612V99.276Z" fill="#C4C495"/>
<path d="M241.676 125.328H224.943V129.36H241.676V125.328Z" fill="#C4C495"/>
<path d="M299.625 125.328H293.737V129.36H299.625V125.328Z" fill="#C4C495"/>
<path d="M311.401 125.328H305.513V129.36H311.401V125.328Z" fill="#C4C495"/>
<path d="M287.54 125.328H247.564V129.36H287.54V125.328Z" fill="#C4C495"/>
<path d="M310.781 108.27H294.047V112.302H310.781V108.27Z" fill="#C4C495"/>
<path d="M333.403 108.27H316.669V112.302H333.403V108.27Z" fill="#C4C495"/>
<path d="M230.83 108.27H224.943V112.302H230.83V108.27Z" fill="#C4C495"/>
<path d="M242.606 108.27H236.718V112.302H242.606V108.27Z" fill="#C4C495"/>
<path d="M288.469 108.27H248.494V112.302H288.469V108.27Z" fill="#C4C495"/>
<path d="M276.074 116.954H259.34V120.986H276.074V116.954Z" fill="#C4C495"/>
<path d="M253.452 116.954H236.718V120.986H253.452V116.954Z" fill="#C4C495"/>
<path d="M230.83 116.954H224.943V120.986H230.83V116.954Z" fill="#C4C495"/>
<path d="M333.403 116.954H327.515V120.986H333.403V116.954Z" fill="#C4C495"/>
<path d="M321.627 116.954H281.652V120.986H321.627V116.954Z" fill="#C4C495"/>
</g>
<defs>
<clipPath id="clip0_2010_62">
<rect width="400" height="376.97" fill="white"/>
</clipPath>
</defs>
</svg>
